<svg width="25" height="24" viewBox="0 0 25 24" fill="none" xmlns="http://www.w3.org/2000/svg">
<path d="M1.323 0.927124L3.83633 1.36212L4.99996 15.2253C5.04465 15.7709 5.29339 16.2795 5.69654 16.6497C6.09969 17.0199 6.62761 17.2245 7.17496 17.2227H20.3579C20.882 17.2233 21.3886 17.0346 21.7847 16.6914C22.1808 16.3482 22.4396 15.8735 22.5135 15.3546L23.6615 7.43037C23.6921 7.21963 23.6808 7.00492 23.6284 6.79852C23.5759 6.59213 23.4833 6.39809 23.3558 6.22751C23.2283 6.05693 23.0685 5.91315 22.8854 5.8044C22.7023 5.69565 22.4996 5.62405 22.2888 5.59371C22.2115 5.58525 4.23991 5.57921 4.23991 5.57921" stroke="white" stroke-width="1.5" stroke-linecap="round" stroke-linejoin="round"/>
<path d="M15.0679 10.0439H18.4186" stroke="white" stroke-width="1.5" stroke-linecap="round" stroke-linejoin="round"/>
<path fill-rule="evenodd" clip-rule="evenodd" d="M6.64454 21.412C6.73315 21.4082 6.82162 21.4224 6.90461 21.4536C6.9876 21.4849 7.0634 21.5327 7.12745 21.594C7.19149 21.6554 7.24246 21.7291 7.27728 21.8107C7.3121 21.8922 7.33005 21.98 7.33005 22.0687C7.33005 22.1574 7.3121 22.2452 7.27728 22.3268C7.24246 22.4083 7.19149 22.482 7.12745 22.5434C7.0634 22.6047 6.9876 22.6525 6.90461 22.6838C6.82162 22.7151 6.73315 22.7292 6.64454 22.7254C6.47524 22.7182 6.31528 22.6458 6.19805 22.5234C6.08082 22.4011 6.01538 22.2382 6.01538 22.0687C6.01538 21.8993 6.08082 21.7363 6.19805 21.614C6.31528 21.4916 6.47524 21.4192 6.64454 21.412Z" fill="#272343" stroke="white" stroke-width="1.5" stroke-linecap="round" stroke-linejoin="round"/>
<path fill-rule="evenodd" clip-rule="evenodd" d="M20.2757 21.412C20.4504 21.412 20.6179 21.4814 20.7414 21.6049C20.8649 21.7284 20.9343 21.8959 20.9343 22.0705C20.9343 22.2452 20.8649 22.4127 20.7414 22.5362C20.6179 22.6597 20.4504 22.7291 20.2757 22.7291C20.1011 22.7291 19.9336 22.6597 19.8101 22.5362C19.6866 22.4127 19.6172 22.2452 19.6172 22.0705C19.6172 21.8959 19.6866 21.7284 19.8101 21.6049C19.9336 21.4814 20.1011 21.412 20.2757 21.412Z" fill="#272343" stroke="white" stroke-width="1.5" stroke-linecap="round" stroke-linejoin="round"/>
</svg>
