<svg width="44" height="45" viewBox="0 0 44 45" fill="none" xmlns="http://www.w3.org/2000/svg">
<rect y="0.5" width="44" height="44" rx="8" fill="#F0F2F3"/>
<path d="M13.5208 14.9792L15.4274 15.3092L16.3102 25.8261C16.3441 26.2399 16.5328 26.6258 16.8386 26.9066C17.1444 27.1875 17.5449 27.3427 17.9602 27.3413H27.961C28.3586 27.3418 28.743 27.1987 29.0434 26.9383C29.3439 26.6779 29.5402 26.3178 29.5963 25.9242L30.4672 19.9127C30.4904 19.7528 30.4819 19.5899 30.4421 19.4333C30.4023 19.2768 30.332 19.1296 30.2353 19.0002C30.1386 18.8707 30.0173 18.7617 29.8784 18.6792C29.7395 18.5967 29.5857 18.5424 29.4258 18.5193C29.3672 18.5129 15.7336 18.5083 15.7336 18.5083" stroke="#272343" stroke-width="1.5" stroke-linecap="round" stroke-linejoin="round"/>
<path d="M23.9478 21.8954H26.4897" stroke="#272343" stroke-width="1.5" stroke-linecap="round" stroke-linejoin="round"/>
<path fill-rule="evenodd" clip-rule="evenodd" d="M17.5579 30.5194C17.6251 30.5165 17.6922 30.5273 17.7552 30.551C17.8181 30.5748 17.8756 30.611 17.9242 30.6575C17.9728 30.7041 18.0115 30.76 18.0379 30.8219C18.0643 30.8837 18.0779 30.9503 18.0779 31.0176C18.0779 31.0849 18.0643 31.1515 18.0379 31.2134C18.0115 31.2753 17.9728 31.3312 17.9242 31.3777C17.8756 31.4243 17.8181 31.4605 17.7552 31.4842C17.6922 31.508 17.6251 31.5187 17.5579 31.5158C17.4294 31.5103 17.3081 31.4554 17.2191 31.3626C17.1302 31.2698 17.0806 31.1462 17.0806 31.0176C17.0806 30.8891 17.1302 30.7655 17.2191 30.6726C17.3081 30.5798 17.4294 30.5249 17.5579 30.5194Z" fill="#272343" stroke="#272343" stroke-width="1.5" stroke-linecap="round" stroke-linejoin="round"/>
<path fill-rule="evenodd" clip-rule="evenodd" d="M27.8988 30.5194C28.0312 30.5194 28.1583 30.5721 28.252 30.6657C28.3457 30.7594 28.3983 30.8865 28.3983 31.019C28.3983 31.1515 28.3457 31.2786 28.252 31.3723C28.1583 31.466 28.0312 31.5186 27.8988 31.5186C27.7663 31.5186 27.6392 31.466 27.5455 31.3723C27.4518 31.2786 27.3992 31.1515 27.3992 31.019C27.3992 30.8865 27.4518 30.7594 27.5455 30.6657C27.6392 30.5721 27.7663 30.5194 27.8988 30.5194Z" fill="#272343" stroke="#272343" stroke-width="1.5" stroke-linecap="round" stroke-linejoin="round"/>
</svg>
